<svg xmlns="http://www.w3.org/2000/svg" width="25" height="25" viewBox="0 0 25 25">
    <path fill="#FFF" fill-rule="evenodd" d="M7.617 6.15h4c1.821 0 3.144.26 3.967.778.824.519 1.235 1.343 1.235 2.474 0 .768-.18 1.398-.54 1.89a2.16 2.16 0 0 1-1.437.888v.088c.814.181 1.402.521 1.762 1.02.36.497.54 1.16.54 1.985 0 1.172-.423 2.086-1.27 2.743-.846.656-1.996.984-3.45.984H7.618V6.15zm2.725 5.09h1.582c.738 0 1.273-.115 1.604-.344.33-.228.496-.606.496-1.133 0-.492-.18-.846-.54-1.06-.36-.213-.93-.32-1.71-.32h-1.432v2.856zm0 2.161v3.349h1.775c.75 0 1.304-.144 1.661-.43.358-.288.536-.727.536-1.319 0-1.066-.761-1.6-2.285-1.6h-1.687z"/>
</svg>
