<svg xmlns="http://www.w3.org/2000/svg" width="19" height="19" viewBox="0 0 19 19">
    <g fill="#666" fill-rule="evenodd">
        <path fill-rule="nonzero" d="M14.824 4.198a3.5 3.5 0 0 0-4.95 0L4.218 9.854a3.5 3.5 0 0 0 4.95 4.95l5.656-5.657a3.5 3.5 0 0 0 0-4.95zm-8.839-.354l1.768-1.768a6.5 6.5 0 0 1 9.192 9.193l-1.767 1.767-2.122-2.121-2.121 2.121 2.121 2.122-1.767 1.767a6.5 6.5 0 1 1-9.193-9.192l1.768-1.768 2.121 2.122 2.122-2.122-2.122-2.121z"/>
        <path d="M10.935 5.965l2.121 2.122-4.95 4.95-2.12-2.122z"/>
    </g>
</svg>
